<svg width="16" height="16" viewBox="0 0 16 16" fill="none" xmlns="http://www.w3.org/2000/svg">
<path d="M8 14C6.33333 14 4.91667 13.4167 3.75 12.25C2.58333 11.0833 2 9.66667 2 8C2 6.33333 2.58333 4.91667 3.75 3.75C4.91667 2.58333 6.33333 2 8 2C8.15556 2 8.30844 2.00556 8.45867 2.01667C8.60889 2.02778 8.756 2.04444 8.9 2.06667C8.44444 2.38889 8.08044 2.80844 7.808 3.32533C7.53556 3.84222 7.39956 4.40044 7.4 5C7.4 6 7.75 6.85 8.45 7.55C9.15 8.25 10 8.6 11 8.6C11.6111 8.6 12.1722 8.46378 12.6833 8.19133C13.1944 7.91889 13.6111 7.55511 13.9333 7.1C13.9556 7.24444 13.9722 7.39156 13.9833 7.54133C13.9944 7.69111 14 7.844 14 8C14 9.66667 13.4167 11.0833 12.25 12.25C11.0833 13.4167 9.66667 14 8 14Z" fill="#76B0E7"/>
</svg>
