<svg width="24" height="24" viewBox="0 0 24 24" fill="none" xmlns="http://www.w3.org/2000/svg">
<path d="M3.89532 5L17.8953 19" stroke="black" stroke-width="2" stroke-linecap="round"/>
<path d="M14.6913 12C14.6913 13.6569 13.3481 15 11.6913 15C10.0344 15 8.69128 13.6569 8.69128 12C8.69128 10.3431 10.0344 9 11.6913 9C13.3481 9 14.6913 10.3431 14.6913 12Z" fill="black"/>
<path fill-rule="evenodd" clip-rule="evenodd" d="M6.33551 7.85441C4.98539 8.84989 3.87378 10.1933 3.1034 11.7531C2.95885 12.0457 2.96623 12.3905 3.12318 12.6767C4.85293 15.831 8.01805 18 11.6913 18C13.0871 18 14.4091 17.687 15.607 17.1259L14.074 15.5929C13.3183 15.8582 12.5174 16 11.6913 16C9.01802 16 6.61056 14.5161 5.14416 12.1712C5.81375 10.9891 6.71524 10.0042 7.76989 9.28879L6.33551 7.85441ZM15.9373 14.6278C16.9401 13.92 17.7985 12.9656 18.4424 11.8288C16.976 9.48387 14.5686 8 11.8953 8C11.1245 8 10.3756 8.12348 9.66498 8.35545L8.11949 6.80996C9.28008 6.28916 10.5536 6 11.8953 6C15.5685 6 18.7337 8.16897 20.4634 11.3233C20.6204 11.6095 20.6277 11.9543 20.4832 12.247C19.7351 13.7615 18.6653 15.0721 17.3678 16.0582L15.9373 14.6278Z" fill="black"/>
</svg>
