<svg width="24" height="24" viewBox="0 0 24 24" fill="none" xmlns="http://www.w3.org/2000/svg">
<circle cx="12" cy="12" r="3" fill="black"/>
<path d="M4.20404 12L3.31705 11.5382C3.16637 11.8276 3.16637 12.1724 3.31705 12.4618L4.20404 12ZM19.796 12L20.683 12.4618C20.8336 12.1724 20.8336 11.8276 20.683 11.5382L19.796 12ZM5.09103 12.4618C6.5005 9.75451 9.09382 8 12 8V6C8.24364 6 5.01987 8.26747 3.31705 11.5382L5.09103 12.4618ZM12 8C14.9062 8 17.4995 9.75452 18.909 12.4618L20.683 11.5382C18.9801 8.26748 15.7564 6 12 6V8ZM18.909 11.5382C17.4995 14.2455 14.9062 16 12 16V18C15.7564 18 18.9801 15.7325 20.683 12.4618L18.909 11.5382ZM12 16C9.09382 16 6.5005 14.2455 5.09103 11.5382L3.31705 12.4618C5.01987 15.7325 8.24364 18 12 18V16Z" fill="black"/>
</svg>
