<svg width="24" height="24" viewBox="0 0 24 24" fill="none" xmlns="http://www.w3.org/2000/svg">
<path d="M14.967 2.02788C14.5681 1.66217 14.0434 1.46459 13.5023 1.47632C12.9613 1.48806 12.4457 1.70822 12.063 2.09088L2.13899 12.0164C1.94396 12.2114 1.78926 12.4429 1.68371 12.6977C1.57816 12.9525 1.52383 13.2256 1.52383 13.5014C1.52383 13.7772 1.57816 14.0503 1.68371 14.3051C1.78926 14.5599 1.94396 14.7914 2.13899 14.9864L3.52799 16.3739C4.04849 16.8959 4.79699 16.7699 5.23799 16.4759C5.55533 16.265 5.93589 16.1704 6.31506 16.2082C6.69423 16.246 7.04862 16.4139 7.31806 16.6833C7.5875 16.9527 7.75538 17.3071 7.79319 17.6863C7.831 18.0655 7.73641 18.446 7.52549 18.7634C7.23299 19.2044 7.10699 19.9544 7.62749 20.4749L8.98499 21.8309C9.18374 22.0298 9.42044 22.1869 9.68104 22.2926C9.94163 22.3984 10.2208 22.4507 10.502 22.4465C10.7832 22.4423 11.0607 22.3816 11.318 22.2682C11.5753 22.1547 11.8073 21.9907 12 21.7859L21.897 11.2679C22.0875 11.0654 22.2359 10.8272 22.3337 10.5669C22.4314 10.3066 22.4765 10.0296 22.4663 9.75175C22.4561 9.47393 22.3908 9.2009 22.2743 8.9485C22.1578 8.69609 21.9923 8.46934 21.7875 8.28138L20.457 7.06188C20.3108 6.93157 20.1363 6.83704 19.9473 6.78575C19.7583 6.73447 19.56 6.72784 19.368 6.76638C19.0275 6.82638 18.705 7.00638 18.471 7.26138C18.3245 7.42113 18.148 7.55048 17.9516 7.64202C17.7552 7.73357 17.5426 7.78553 17.3261 7.79493C17.1096 7.80433 16.8933 7.77099 16.6897 7.69682C16.486 7.62264 16.299 7.50909 16.1392 7.36263C15.9795 7.21617 15.8501 7.03969 15.7586 6.84324C15.667 6.6468 15.6151 6.43425 15.6057 6.21772C15.5963 6.0012 15.6296 5.78495 15.7038 5.58131C15.778 5.37767 15.8915 5.19063 16.038 5.03088C16.2735 4.77888 16.425 4.44138 16.4565 4.09638C16.4782 3.9017 16.4542 3.70465 16.3865 3.52084C16.3188 3.33702 16.2092 3.1715 16.0665 3.03738L14.967 2.02788Z" fill="white"/>
</svg>
