<svg width="24" height="24" viewBox="0 0 24 24" fill="none" xmlns="http://www.w3.org/2000/svg">
<path d="M10.995 4.68V8.56C10.995 8.88127 10.9316 9.19938 10.8083 9.49606C10.6851 9.79275 10.5044 10.0622 10.2768 10.2889C10.0492 10.5156 9.77901 10.6951 9.48182 10.8171C9.18463 10.9392 8.86627 11.0013 8.545 11H4.685C4.3646 11.0019 4.04711 10.9392 3.75156 10.8155C3.456 10.6917 3.18847 10.5096 2.965 10.28C2.73857 10.0547 2.55919 9.78657 2.43731 9.49129C2.31542 9.19601 2.25345 8.87944 2.255 8.56V4.69C2.255 4.0446 2.51069 3.42549 2.96612 2.96819C3.42155 2.51088 4.03961 2.25265 4.685 2.25H8.555C8.87507 2.25031 9.19189 2.3141 9.48713 2.43769C9.78237 2.56128 10.0502 2.74221 10.275 2.97C10.5029 3.19264 10.6841 3.45862 10.8077 3.75228C10.9314 4.04594 10.995 4.36137 10.995 4.68ZM21.745 4.69V8.56C21.7398 9.2038 21.4824 9.81991 21.0281 10.2761C20.5738 10.7323 19.9588 10.9922 19.315 11H15.435C14.7882 10.996 14.1681 10.7416 13.705 10.29C13.4787 10.0625 13.2995 9.79258 13.1777 9.49572C13.0559 9.19886 12.9938 8.88088 12.995 8.56V4.69C12.9936 4.36969 13.0567 4.05236 13.1803 3.75689C13.304 3.46141 13.4859 3.19382 13.715 2.97C13.9398 2.74221 14.2076 2.56128 14.5029 2.43769C14.7981 2.3141 15.1149 2.25031 15.435 2.25H19.305C19.9505 2.25523 20.5681 2.51398 21.0246 2.97044C21.481 3.4269 21.7398 4.04449 21.745 4.69ZM21.745 15.44V19.31C21.7398 19.9538 21.4824 20.5699 21.0281 21.0261C20.5738 21.4823 19.9588 21.7422 19.315 21.75H15.435C14.7841 21.7566 14.1563 21.5091 13.685 21.06C13.4578 20.8331 13.278 20.5634 13.1561 20.2664C13.0343 19.9693 12.9727 19.651 12.975 19.33V15.46C12.9737 15.1397 13.0367 14.8224 13.1604 14.5269C13.2841 14.2315 13.4659 13.9639 13.695 13.74C13.9199 13.5123 14.1877 13.3314 14.4829 13.2078C14.7781 13.0842 15.0949 13.0204 15.415 13.02H19.285C19.9305 13.0252 20.5481 13.284 21.0046 13.7404C21.461 14.1969 21.7198 14.8145 21.725 15.46L21.745 15.44ZM10.995 15.45V19.32C10.9871 19.9655 10.7259 20.582 10.2675 21.0366C9.80919 21.4912 9.19054 21.7474 8.545 21.75H4.685C4.36552 21.7513 4.04894 21.6894 3.75352 21.5677C3.4581 21.4461 3.18969 21.2671 2.96378 21.0412C2.73787 20.8153 2.55893 20.5469 2.43728 20.2515C2.31563 19.9561 2.25368 19.6395 2.255 19.32V15.45C2.25758 14.8045 2.5138 14.1858 2.96839 13.7275C3.42298 13.2691 4.03951 13.0079 4.685 13H8.555C9.20342 13.0056 9.82409 13.2639 10.285 13.72C10.7411 14.1801 10.9964 14.8021 10.995 15.45Z" fill="white"/>
</svg>
