<svg width="16" height="16" viewBox="0 0 16 16" fill="none" xmlns="http://www.w3.org/2000/svg">
<path d="M8.00001 7.66658C7.55798 7.66658 7.13406 7.49099 6.8215 7.17843C6.50894 6.86587 6.33334 6.44195 6.33334 5.99992C6.33334 5.55789 6.50894 5.13397 6.8215 4.82141C7.13406 4.50885 7.55798 4.33325 8.00001 4.33325C8.44204 4.33325 8.86596 4.50885 9.17852 4.82141C9.49108 5.13397 9.66668 5.55789 9.66668 5.99992C9.66668 6.21879 9.62357 6.43551 9.53981 6.63772C9.45605 6.83993 9.33329 7.02367 9.17852 7.17843C9.02376 7.33319 8.84002 7.45596 8.63782 7.53972C8.43561 7.62348 8.21888 7.66658 8.00001 7.66658ZM8.00001 1.33325C6.76233 1.33325 5.57535 1.82492 4.70018 2.70009C3.82501 3.57526 3.33334 4.76224 3.33334 5.99992C3.33334 9.49992 8.00001 14.6666 8.00001 14.6666C8.00001 14.6666 12.6667 9.49992 12.6667 5.99992C12.6667 4.76224 12.175 3.57526 11.2998 2.70009C10.4247 1.82492 9.23769 1.33325 8.00001 1.33325Z" fill="#A8A8A8"/>
</svg>
