<svg width="16" height="16" viewBox="0 0 16 16" fill="none" xmlns="http://www.w3.org/2000/svg">
<g clip-path="url(#clip0_223_204)">
<path d="M13.3333 2C13.6869 2 14.0261 2.14048 14.2761 2.39052C14.5262 2.64057 14.6666 2.97971 14.6666 3.33333V12.6667C14.6666 13.0203 14.5262 13.3594 14.2761 13.6095C14.0261 13.8595 13.6869 14 13.3333 14H2.66665C2.31302 14 1.97389 13.8595 1.72384 13.6095C1.47379 13.3594 1.33331 13.0203 1.33331 12.6667V3.33333C1.33331 2.97971 1.47379 2.64057 1.72384 2.39052C1.97389 2.14048 2.31302 2 2.66665 2H13.3333ZM11.3333 10H4.66665C4.48984 10 4.32027 10.0702 4.19524 10.1953C4.07022 10.3203 3.99998 10.4899 3.99998 10.6667C3.99998 10.8435 4.07022 11.013 4.19524 11.1381C4.32027 11.2631 4.48984 11.3333 4.66665 11.3333H11.3333C11.5101 11.3333 11.6797 11.2631 11.8047 11.1381C11.9297 11.013 12 10.8435 12 10.6667C12 10.4899 11.9297 10.3203 11.8047 10.1953C11.6797 10.0702 11.5101 10 11.3333 10ZM6.66665 4.66667H5.33331C4.99693 4.66656 4.67294 4.7936 4.42628 5.02233C4.17963 5.25106 4.02854 5.56456 4.00331 5.9L3.99998 6V7.33333C3.99987 7.66972 4.12692 7.99371 4.35564 8.24037C4.58437 8.48702 4.89788 8.6381 5.23331 8.66333L5.33331 8.66667H6.66665C7.00303 8.66677 7.32702 8.53973 7.57368 8.311C7.82033 8.08228 7.97142 7.76877 7.99665 7.43333L7.99998 7.33333V6C8.00009 5.66362 7.87304 5.33962 7.64431 5.09297C7.41559 4.84631 7.10208 4.69523 6.76665 4.67L6.66665 4.66667ZM11.3333 7.33333H9.33331C9.16339 7.33352 8.99996 7.39859 8.8764 7.51523C8.75284 7.63188 8.67849 7.7913 8.66853 7.96093C8.65857 8.13056 8.71376 8.29759 8.82282 8.42789C8.93188 8.55819 9.08658 8.64193 9.25531 8.662L9.33331 8.66667H11.3333C11.5032 8.66648 11.6667 8.60141 11.7902 8.48477C11.9138 8.36812 11.9881 8.2087 11.9981 8.03907C12.0081 7.86944 11.9529 7.70241 11.8438 7.57211C11.7347 7.44181 11.58 7.35807 11.4113 7.338L11.3333 7.33333ZM6.66665 6V7.33333H5.33331V6H6.66665ZM11.3333 4.66667H9.33331C9.1565 4.66667 8.98693 4.7369 8.86191 4.86193C8.73688 4.98695 8.66665 5.15652 8.66665 5.33333C8.66665 5.51014 8.73688 5.67971 8.86191 5.80474C8.98693 5.92976 9.1565 6 9.33331 6H11.3333C11.5101 6 11.6797 5.92976 11.8047 5.80474C11.9297 5.67971 12 5.51014 12 5.33333C12 5.15652 11.9297 4.98695 11.8047 4.86193C11.6797 4.7369 11.5101 4.66667 11.3333 4.66667Z" fill="#E0773E"/>
</g>
<defs>
<clipPath id="clip0_223_204">
<rect width="16" height="16" fill="white"/>
</clipPath>
</defs>
</svg>
