<svg width="20" height="20" viewBox="0 0 20 20" fill="none" xmlns="http://www.w3.org/2000/svg">
<path d="M12.7408 12.2309C12.6185 12.1909 11.8454 11.8424 12.3285 10.374H12.3215C13.5808 9.07704 14.5431 6.99012 14.5431 4.9355C14.5431 1.77627 12.4423 0.120117 10.0008 0.120117C7.55769 0.120117 5.46846 1.7755 5.46846 4.9355C5.46846 6.99858 6.42538 9.09396 7.69231 10.3878C8.18615 11.6832 7.30308 12.164 7.11846 12.2317C4.56154 13.1563 1.56154 14.8417 1.56154 16.5055V17.1293C1.56154 19.3963 5.95692 19.9117 10.0246 19.9117C14.0985 19.9117 18.4385 19.3963 18.4385 17.1293V16.5055C18.4385 14.7917 15.4238 13.1193 12.7408 12.2309Z" fill="#A8A8A8"/>
</svg>
