<svg width="16" height="16" viewBox="0 0 16 16" fill="none" xmlns="http://www.w3.org/2000/svg">
<g clip-path="url(#clip0_223_217)">
<path d="M10 12.6666C10.0001 13.003 9.87308 13.327 9.64436 13.5736C9.41563 13.8203 9.10212 13.9714 8.76669 13.9966L8.66669 13.9999H7.33335C6.99697 14 6.67298 13.873 6.42632 13.6443C6.17967 13.4155 6.02858 13.102 6.00335 12.7666L6.00002 12.6666H10ZM8.00002 1.33325C9.21001 1.33323 10.3727 1.80318 11.2428 2.64397C12.113 3.48476 12.6225 4.63064 12.664 5.83992L12.6667 5.99992V8.50925L13.8814 10.9386C13.9344 11.0446 13.9609 11.1619 13.9587 11.2803C13.9564 11.3988 13.9255 11.515 13.8686 11.619C13.8116 11.7229 13.7303 11.8115 13.6317 11.8771C13.533 11.9428 13.4199 11.9835 13.302 11.9959L13.2254 11.9999H2.77469C2.65613 12 2.53933 11.9712 2.4343 11.9162C2.32927 11.8613 2.23914 11.7816 2.17163 11.6842C2.10412 11.5867 2.06125 11.4743 2.04669 11.3567C2.03213 11.239 2.04631 11.1196 2.08802 11.0086L2.11869 10.9386L3.33335 8.50925V5.99992C3.33335 4.76224 3.82502 3.57526 4.70019 2.70009C5.57536 1.82492 6.76234 1.33325 8.00002 1.33325Z" fill="#7B67F6"/>
</g>
<defs>
<clipPath id="clip0_223_217">
<rect width="16" height="16" fill="white"/>
</clipPath>
</defs>
</svg>
