<svg width="20" height="20" viewBox="0 0 20 20" fill="none" xmlns="http://www.w3.org/2000/svg">
<path d="M1.66666 15.8333V14.1666H18.3333V15.8333H1.66666ZM2.625 10.7916L1.54166 10.1666L2.25 8.91659H0.833328V7.66659H2.25L1.54166 6.45825L2.625 5.83325L3.33333 7.04159L4.04166 5.83325L5.125 6.45825L4.41666 7.66659H5.83333V8.91659H4.41666L5.125 10.1666L4.04166 10.7916L3.33333 9.54159L2.625 10.7916ZM9.29166 10.7916L8.20833 10.1666L8.91666 8.91659H7.5V7.66659H8.91666L8.20833 6.45825L9.29166 5.83325L10 7.04159L10.7083 5.83325L11.7917 6.45825L11.0833 7.66659H12.5V8.91659H11.0833L11.7917 10.1666L10.7083 10.7916L10 9.54159L9.29166 10.7916ZM15.9583 10.7916L14.875 10.1666L15.5833 8.91659H14.1667V7.66659H15.5833L14.875 6.45825L15.9583 5.83325L16.6667 7.04159L17.375 5.83325L18.4583 6.45825L17.75 7.66659H19.1667V8.91659H17.75L18.4583 10.1666L17.375 10.7916L16.6667 9.54159L15.9583 10.7916Z" fill="#A8A8A8"/>
</svg>
