<svg width="16" height="16" viewBox="0 0 16 16" fill="none" xmlns="http://www.w3.org/2000/svg">
<path d="M10.2 11.1333L11.1333 10.1999L8.66668 7.73325V4.66659H7.33334V8.26659L10.2 11.1333ZM8.00001 14.6666C7.07779 14.6666 6.21112 14.4915 5.40001 14.1413C4.5889 13.791 3.88334 13.3161 3.28334 12.7166C2.68334 12.1166 2.20845 11.411 1.85868 10.5999C1.5089 9.78881 1.33379 8.92214 1.33334 7.99992C1.33334 7.0777 1.50845 6.21103 1.85868 5.39992C2.2089 4.58881 2.68379 3.88325 3.28334 3.28325C3.88334 2.68325 4.5889 2.20836 5.40001 1.85859C6.21112 1.50881 7.07779 1.3337 8.00001 1.33325C8.92223 1.33325 9.7889 1.50836 10.6 1.85859C11.4111 2.20881 12.1167 2.6837 12.7167 3.28325C13.3167 3.88325 13.7918 4.58881 14.142 5.39992C14.4922 6.21103 14.6671 7.0777 14.6667 7.99992C14.6667 8.92214 14.4916 9.78881 14.1413 10.5999C13.7911 11.411 13.3162 12.1166 12.7167 12.7166C12.1167 13.3166 11.4111 13.7917 10.6 14.1419C9.7889 14.4921 8.92223 14.667 8.00001 14.6666ZM8.00001 13.3333C9.47779 13.3333 10.7362 12.8139 11.7753 11.7753C12.8145 10.7366 13.3338 9.47814 13.3333 7.99992C13.3333 6.52214 12.814 5.2637 11.7753 4.22459C10.7367 3.18547 9.47823 2.66614 8.00001 2.66659C6.52223 2.66659 5.26379 3.18614 4.22468 4.22525C3.18557 5.26436 2.66623 6.52259 2.66668 7.99992C2.66668 9.4777 3.18623 10.7361 4.22534 11.7753C5.26445 12.8144 6.52268 13.3337 8.00001 13.3333Z" fill="#A8A8A8"/>
</svg>
